<mxfile host="app.diagrams.net" modified="2020-10-09T09:29:50.354Z" agent="5.0 (Macintosh; Intel Mac OS X 10_15_5) AppleWebKit/537.36 (KHTML, like Gecko) Chrome/85.0.4183.121 Safari/537.36" etag="yI0uytEo0CH2nmZd3rfQ" version="13.7.9" type="github">
  <diagram name="Page-1" id="13e1069c-82ec-6db2-03f1-153e76fe0fe0">
    <mxGraphModel dx="1186" dy="706" grid="1" gridSize="10" guides="1" tooltips="1" connect="1" arrows="1" fold="1" page="1" pageScale="1" pageWidth="1100" pageHeight="850" background="#ffffff" math="0" shadow="0">
      <root>
        <mxCell id="0" />
        <mxCell id="1" parent="0" />
        <mxCell id="7baba1c4bc27f4b0-2" value=":Object" style="shape=umlLifeline;perimeter=lifelinePerimeter;whiteSpace=wrap;html=1;container=1;collapsible=0;recursiveResize=0;outlineConnect=0;rounded=1;shadow=0;comic=0;labelBackgroundColor=none;strokeWidth=1;fontFamily=Verdana;fontSize=12;align=center;" parent="1" vertex="1">
          <mxGeometry x="240" y="80" width="100" height="580" as="geometry" />
        </mxCell>
        <mxCell id="7baba1c4bc27f4b0-10" value="" style="html=1;points=[];perimeter=orthogonalPerimeter;rounded=0;shadow=0;comic=0;labelBackgroundColor=none;strokeWidth=1;fontFamily=Verdana;fontSize=12;align=center;" parent="7baba1c4bc27f4b0-2" vertex="1">
          <mxGeometry x="45" y="100" width="10" height="70" as="geometry" />
        </mxCell>
        <mxCell id="7baba1c4bc27f4b0-22" value="" style="html=1;points=[];perimeter=orthogonalPerimeter;rounded=0;shadow=0;comic=0;labelBackgroundColor=none;strokeWidth=1;fontFamily=Verdana;fontSize=12;align=center;" parent="7baba1c4bc27f4b0-2" vertex="1">
          <mxGeometry x="45" y="370" width="10" height="60" as="geometry" />
        </mxCell>
        <mxCell id="7baba1c4bc27f4b0-3" value=":Object" style="shape=umlLifeline;perimeter=lifelinePerimeter;whiteSpace=wrap;html=1;container=1;collapsible=0;recursiveResize=0;outlineConnect=0;rounded=1;shadow=0;comic=0;labelBackgroundColor=none;strokeWidth=1;fontFamily=Verdana;fontSize=12;align=center;" parent="1" vertex="1">
          <mxGeometry x="400" y="80" width="100" height="580" as="geometry" />
        </mxCell>
        <mxCell id="7baba1c4bc27f4b0-13" value="" style="html=1;points=[];perimeter=orthogonalPerimeter;rounded=0;shadow=0;comic=0;labelBackgroundColor=none;strokeWidth=1;fontFamily=Verdana;fontSize=12;align=center;" parent="7baba1c4bc27f4b0-3" vertex="1">
          <mxGeometry x="45" y="120" width="10" height="80" as="geometry" />
        </mxCell>
        <mxCell id="7baba1c4bc27f4b0-25" value="" style="html=1;points=[];perimeter=orthogonalPerimeter;rounded=0;shadow=0;comic=0;labelBackgroundColor=none;strokeColor=#000000;strokeWidth=1;fillColor=#FFFFFF;fontFamily=Verdana;fontSize=12;fontColor=#000000;align=center;" parent="7baba1c4bc27f4b0-3" vertex="1">
          <mxGeometry x="45" y="380" width="10" height="50" as="geometry" />
        </mxCell>
        <mxCell id="zi1VuC1-JUYCU3SmbjNZ-3" style="edgeStyle=orthogonalEdgeStyle;rounded=0;orthogonalLoop=1;jettySize=auto;html=1;" edge="1" parent="1" source="7baba1c4bc27f4b0-4">
          <mxGeometry relative="1" as="geometry">
            <mxPoint x="160" y="370" as="targetPoint" />
          </mxGeometry>
        </mxCell>
        <mxCell id="zi1VuC1-JUYCU3SmbjNZ-4" value="聚合集群信息" style="edgeLabel;html=1;align=center;verticalAlign=middle;resizable=0;points=[];" vertex="1" connectable="0" parent="zi1VuC1-JUYCU3SmbjNZ-3">
          <mxGeometry x="0.0953" y="1" relative="1" as="geometry">
            <mxPoint x="1" y="-11" as="offset" />
          </mxGeometry>
        </mxCell>
        <mxCell id="7baba1c4bc27f4b0-4" value=":Object" style="shape=umlLifeline;perimeter=lifelinePerimeter;whiteSpace=wrap;html=1;container=1;collapsible=0;recursiveResize=0;outlineConnect=0;rounded=1;shadow=0;comic=0;labelBackgroundColor=none;strokeWidth=1;fontFamily=Verdana;fontSize=12;align=center;" parent="1" vertex="1">
          <mxGeometry x="630" y="80" width="100" height="580" as="geometry" />
        </mxCell>
        <mxCell id="7baba1c4bc27f4b0-16" value="" style="html=1;points=[];perimeter=orthogonalPerimeter;rounded=0;shadow=0;comic=0;labelBackgroundColor=none;strokeWidth=1;fontFamily=Verdana;fontSize=12;align=center;" parent="7baba1c4bc27f4b0-4" vertex="1">
          <mxGeometry x="50" y="140" width="10" height="160" as="geometry" />
        </mxCell>
        <mxCell id="7baba1c4bc27f4b0-37" value="" style="html=1;points=[];perimeter=orthogonalPerimeter;rounded=0;shadow=0;comic=0;labelBackgroundColor=none;strokeWidth=1;fontFamily=Verdana;fontSize=12;align=center;" parent="7baba1c4bc27f4b0-4" vertex="1">
          <mxGeometry x="45" y="380" width="10" height="40" as="geometry" />
        </mxCell>
        <mxCell id="7baba1c4bc27f4b0-5" value=":Object" style="shape=umlLifeline;perimeter=lifelinePerimeter;whiteSpace=wrap;html=1;container=1;collapsible=0;recursiveResize=0;outlineConnect=0;rounded=1;shadow=0;comic=0;labelBackgroundColor=none;strokeWidth=1;fontFamily=Verdana;fontSize=12;align=center;" parent="1" vertex="1">
          <mxGeometry x="880" y="80" width="100" height="580" as="geometry" />
        </mxCell>
        <mxCell id="7baba1c4bc27f4b0-19" value="" style="html=1;points=[];perimeter=orthogonalPerimeter;rounded=0;shadow=0;comic=0;labelBackgroundColor=none;strokeWidth=1;fontFamily=Verdana;fontSize=12;align=center;" parent="7baba1c4bc27f4b0-5" vertex="1">
          <mxGeometry x="45" y="150" width="10" height="100" as="geometry" />
        </mxCell>
        <mxCell id="7baba1c4bc27f4b0-8" value=":Object" style="shape=umlLifeline;perimeter=lifelinePerimeter;whiteSpace=wrap;html=1;container=1;collapsible=0;recursiveResize=0;outlineConnect=0;rounded=1;shadow=0;comic=0;labelBackgroundColor=none;strokeWidth=1;fontFamily=Verdana;fontSize=12;align=center;" parent="1" vertex="1">
          <mxGeometry x="100" y="80" width="100" height="580" as="geometry" />
        </mxCell>
        <mxCell id="7baba1c4bc27f4b0-9" value="" style="html=1;points=[];perimeter=orthogonalPerimeter;rounded=0;shadow=0;comic=0;labelBackgroundColor=none;strokeWidth=1;fontFamily=Verdana;fontSize=12;align=center;" parent="7baba1c4bc27f4b0-8" vertex="1">
          <mxGeometry x="45" y="100" width="10" height="440" as="geometry" />
        </mxCell>
        <mxCell id="7baba1c4bc27f4b0-17" value="&lt;font style=&quot;font-size: 11px&quot;&gt;根据 userInfo 查询 &lt;br&gt;cluster_user_binding 对应的 cluster ids&lt;/font&gt;" style="html=1;verticalAlign=bottom;endArrow=block;labelBackgroundColor=none;fontFamily=Verdana;fontSize=12;edgeStyle=elbowEdgeStyle;elbow=vertical;" parent="1" source="7baba1c4bc27f4b0-13" target="7baba1c4bc27f4b0-16" edge="1">
          <mxGeometry x="0.1111" y="10" relative="1" as="geometry">
            <mxPoint x="510" y="220" as="sourcePoint" />
            <Array as="points">
              <mxPoint x="460" y="220" />
            </Array>
            <mxPoint as="offset" />
          </mxGeometry>
        </mxCell>
        <mxCell id="7baba1c4bc27f4b0-20" value="" style="html=1;verticalAlign=bottom;endArrow=block;entryX=0;entryY=0;labelBackgroundColor=none;fontFamily=Verdana;fontSize=12;edgeStyle=elbowEdgeStyle;elbow=vertical;" parent="1" source="7baba1c4bc27f4b0-16" target="7baba1c4bc27f4b0-19" edge="1">
          <mxGeometry relative="1" as="geometry">
            <mxPoint x="650" y="230" as="sourcePoint" />
          </mxGeometry>
        </mxCell>
        <mxCell id="zi1VuC1-JUYCU3SmbjNZ-1" value="根据 cluster_ids 到 db 查询集群信息" style="edgeLabel;html=1;align=center;verticalAlign=middle;resizable=0;points=[];" vertex="1" connectable="0" parent="7baba1c4bc27f4b0-20">
          <mxGeometry x="0.1459" y="-2" relative="1" as="geometry">
            <mxPoint as="offset" />
          </mxGeometry>
        </mxCell>
        <mxCell id="7baba1c4bc27f4b0-21" value="return" style="html=1;verticalAlign=bottom;endArrow=open;dashed=1;endSize=8;labelBackgroundColor=none;fontFamily=Verdana;fontSize=12;edgeStyle=elbowEdgeStyle;elbow=vertical;" parent="1" source="7baba1c4bc27f4b0-19" target="7baba1c4bc27f4b0-16" edge="1">
          <mxGeometry relative="1" as="geometry">
            <mxPoint x="650" y="306" as="targetPoint" />
            <Array as="points">
              <mxPoint x="840" y="310" />
              <mxPoint x="670" y="260" />
              <mxPoint x="700" y="260" />
            </Array>
          </mxGeometry>
        </mxCell>
        <mxCell id="7baba1c4bc27f4b0-23" value="为现有集群增加管理员" style="html=1;verticalAlign=bottom;endArrow=block;entryX=0;entryY=0;labelBackgroundColor=none;fontFamily=Verdana;fontSize=12;" parent="1" source="7baba1c4bc27f4b0-9" target="7baba1c4bc27f4b0-22" edge="1">
          <mxGeometry relative="1" as="geometry">
            <mxPoint x="510" y="420" as="sourcePoint" />
          </mxGeometry>
        </mxCell>
        <mxCell id="7baba1c4bc27f4b0-26" value="校验 mis_id 合法性" style="html=1;verticalAlign=bottom;endArrow=block;entryX=0;entryY=0;labelBackgroundColor=none;fontFamily=Verdana;fontSize=12;" parent="1" source="7baba1c4bc27f4b0-22" target="7baba1c4bc27f4b0-25" edge="1">
          <mxGeometry relative="1" as="geometry">
            <mxPoint x="930" y="340" as="sourcePoint" />
          </mxGeometry>
        </mxCell>
        <mxCell id="7baba1c4bc27f4b0-27" value="不合法, return" style="html=1;verticalAlign=bottom;endArrow=open;dashed=1;endSize=8;exitX=0;exitY=0.95;labelBackgroundColor=none;fontFamily=Verdana;fontSize=12;" parent="1" source="7baba1c4bc27f4b0-25" target="7baba1c4bc27f4b0-22" edge="1">
          <mxGeometry relative="1" as="geometry">
            <mxPoint x="930" y="416" as="targetPoint" />
          </mxGeometry>
        </mxCell>
        <mxCell id="7baba1c4bc27f4b0-11" value="访问 mke dashboard" style="html=1;verticalAlign=bottom;endArrow=block;entryX=0;entryY=0;labelBackgroundColor=none;fontFamily=Verdana;fontSize=12;edgeStyle=elbowEdgeStyle;elbow=vertical;" parent="1" source="7baba1c4bc27f4b0-9" target="7baba1c4bc27f4b0-10" edge="1">
          <mxGeometry relative="1" as="geometry">
            <mxPoint x="220" y="190" as="sourcePoint" />
          </mxGeometry>
        </mxCell>
        <mxCell id="7baba1c4bc27f4b0-14" value="authManager 获取 userInfo" style="html=1;verticalAlign=bottom;endArrow=block;entryX=0;entryY=0;labelBackgroundColor=none;fontFamily=Verdana;fontSize=12;edgeStyle=elbowEdgeStyle;elbow=vertical;" parent="1" source="7baba1c4bc27f4b0-10" target="7baba1c4bc27f4b0-13" edge="1">
          <mxGeometry relative="1" as="geometry">
            <mxPoint x="370" y="200" as="sourcePoint" />
          </mxGeometry>
        </mxCell>
        <mxCell id="7baba1c4bc27f4b0-43" value="查看集群 dashboard 时序" style="shape=note;whiteSpace=wrap;html=1;size=14;verticalAlign=top;align=left;spacingTop=-6;rounded=0;shadow=0;comic=0;labelBackgroundColor=none;strokeWidth=1;fontFamily=Verdana;fontSize=12" parent="1" vertex="1">
          <mxGeometry x="20" y="170" width="100" height="35" as="geometry" />
        </mxCell>
        <mxCell id="7baba1c4bc27f4b0-44" value="添加集群子账户时序" style="shape=note;whiteSpace=wrap;html=1;size=14;verticalAlign=top;align=left;spacingTop=-6;rounded=0;shadow=0;comic=0;labelBackgroundColor=none;strokeWidth=1;fontFamily=Verdana;fontSize=12" parent="1" vertex="1">
          <mxGeometry x="20" y="425" width="90" height="35" as="geometry" />
        </mxCell>
        <mxCell id="zi1VuC1-JUYCU3SmbjNZ-5" style="edgeStyle=orthogonalEdgeStyle;rounded=0;orthogonalLoop=1;jettySize=auto;html=1;entryX=0.5;entryY=0.625;entryDx=0;entryDy=0;entryPerimeter=0;" edge="1" parent="1" source="7baba1c4bc27f4b0-25" target="7baba1c4bc27f4b0-37">
          <mxGeometry relative="1" as="geometry" />
        </mxCell>
        <mxCell id="zi1VuC1-JUYCU3SmbjNZ-6" value="添加 mis_id 到 cluster_user_binding&lt;br&gt;refresh cache" style="text;html=1;align=center;verticalAlign=middle;resizable=0;points=[];autosize=1;" vertex="1" parent="1">
          <mxGeometry x="470" y="455" width="210" height="30" as="geometry" />
        </mxCell>
      </root>
    </mxGraphModel>
  </diagram>
</mxfile>
